<?xml version="1.0" standalone="no"?>
<!DOCTYPE svg PUBLIC "-//W3C//DTD SVG 1.1//EN" "http://www.w3.org/Graphics/SVG/1.1/DTD/svg11.dtd" >
<svg xmlns="http://www.w3.org/2000/svg">
<metadata>
Created by FontForge 20120731 at Tue Jan 10 10:16:11 2017
 By admin
</metadata>
<defs>
<font id="iconfont" horiz-adv-x="1024" >
  <font-face 
    font-family="iconfont"
    font-weight="500"
    font-stretch="normal"
    units-per-em="1024"
    panose-1="2 0 6 3 0 0 0 0 0 0"
    ascent="896"
    descent="-128"
    x-height="792"
    bbox="-0.041666 -212 1383.69 896.059"
    underline-thickness="0"
    underline-position="0"
    unicode-range="U+0078-E6C1"
  />
<missing-glyph 
 />
    <glyph glyph-name=".notdef" 
 />
    <glyph glyph-name=".notdef" 
 />
    <glyph glyph-name=".null" horiz-adv-x="0" 
 />
    <glyph glyph-name="nonmarkingreturn" horiz-adv-x="341" 
 />
    <glyph glyph-name="x" unicode="x" horiz-adv-x="1001" 
d="M281 543q-27 -1 -53 -1h-83q-18 0 -36.5 -6t-32.5 -18.5t-23 -32t-9 -45.5v-76h912v41q0 16 -0.5 30t-0.5 18q0 13 -5 29t-17 29.5t-31.5 22.5t-49.5 9h-133v-97h-438v97zM955 310v-52q0 -23 0.5 -52t0.5 -58t-10.5 -47.5t-26 -30t-33 -16t-31.5 -4.5q-14 -1 -29.5 -0.5
t-29.5 0.5h-32l-45 128h-439l-44 -128h-29h-34q-20 0 -45 1q-25 0 -41 9.5t-25.5 23t-13.5 29.5t-4 30v167h911zM163 247q-12 0 -21 -8.5t-9 -21.5t9 -21.5t21 -8.5q13 0 22 8.5t9 21.5t-9 21.5t-22 8.5zM316 123q-8 -26 -14 -48q-5 -19 -10.5 -37t-7.5 -25t-3 -15t1 -14.5
t9.5 -10.5t21.5 -4h37h67h81h80h64h36q23 0 34 12t2 38q-5 13 -9.5 30.5t-9.5 34.5q-5 19 -11 39h-368zM336 498v228q0 11 2.5 23t10 21.5t20.5 15.5t34 6h188q31 0 51.5 -14.5t20.5 -52.5v-227h-327z" />
    <glyph glyph-name="edit" unicode="&#xe600;" 
d="M800 -64h-576q-40 0 -68 28t-28 68v640q0 40 28 68t68 28h448q13 0 22.5 -9.5t9.5 -22.5t-9.5 -22.5t-22.5 -9.5h-448q-13 0 -22.5 -9.5t-9.5 -22.5v-640q0 -13 9.5 -22.5t22.5 -9.5h576q13 0 22.5 9.5t9.5 22.5v512q0 13 9.5 22.5t22.5 9.5t22.5 -9.5t9.5 -22.5v-512
q0 -40 -28 -68t-68 -28zM612 448q-13 0 -22.5 9.5t-9.5 22.5t9 23l318 318q10 9 23 9t22.5 -9.5t9.5 -22.5t-9 -23l-318 -318q-10 -9 -23 -9zM480 448h-192q-13 0 -22.5 9.5t-9.5 22.5t9.5 22.5t22.5 9.5h192q13 0 22.5 -9.5t9.5 -22.5t-9.5 -22.5t-22.5 -9.5zM672 256h-384
q-13 0 -22.5 9.5t-9.5 22.5t9.5 22.5t22.5 9.5h384q13 0 22.5 -9.5t9.5 -22.5t-9.5 -22.5t-22.5 -9.5z" />
    <glyph glyph-name="comment" unicode="&#xe609;" 
d="M512 -32q-13 0 -23 9l-96 96q-9 10 -9 23t9.5 22.5t22.5 9.5t23 -9l73 -74l73 74q10 9 23 9h224q13 0 22.5 9.5t9.5 22.5v512q0 13 -9.5 22.5t-22.5 9.5h-640q-13 0 -22.5 -9.5t-9.5 -22.5v-512q0 -13 9.5 -22.5t22.5 -9.5h96q13 0 22.5 -9.5t9.5 -22.5t-9.5 -22.5
t-22.5 -9.5h-96q-40 0 -68 28t-28 68v512q0 40 28 68t68 28h640q40 0 68 -28t28 -68v-512q0 -40 -28 -68t-68 -28h-211l-86 -87q-10 -9 -23 -9zM336 384q-20 0 -34 14t-14 34t14 34t34 14t34 -14t14 -34t-14 -34t-34 -14zM528 384q-20 0 -34 14t-14 34t14 34t34 14t34 -14
t14 -34t-14 -34t-34 -14zM720 384q-20 0 -34 14t-14 34t14 34t34 14t34 -14t14 -34t-14 -34t-34 -14z" />
    <glyph glyph-name="fold" unicode="&#xe60c;" 
d="M887 279l-353 350l-1 0.5l-1 0.5v1q-10 9 -23 9t-22 -10l-350 -353q-10 -9 -10 -22.5t9.5 -22.5t23 -9t22.5 9l328 331l332 -330q10 -9 23 -9t22.5 9.5t9.5 23t-10 22.5z" />
    <glyph glyph-name="wenti" unicode="&#xe628;" 
d="M152 -148v172q-60 4 -101.5 48t-41.5 104v400q0 63 44.5 107.5t107.5 44.5h702q63 0 107.5 -44.5t44.5 -107.5v-400q0 -63 -44.5 -107.5t-107.5 -44.5h-530zM161 680q-43 0 -73.5 -30.5t-30.5 -73.5v-400q0 -43 30.5 -73.5t73.5 -30.5h39v-108l114 108h549
q43 0 73.5 30.5t30.5 73.5v400q0 43 -30.5 73.5t-73.5 30.5h-702zM290 386zM228 386q0 26 18 44t44 18t44 -18t18 -44t-18 -44t-44 -18t-44 18t-18 44zM512 386zM450 386q0 26 18 44t44 18t44 -18t18 -44t-18 -44t-44 -18t-44 18t-18 44zM734 386zM672 386q0 26 18 44t44 18
t44 -18t18 -44t-18 -44t-44 -18t-44 18t-18 44z" />
    <glyph glyph-name="right" unicode="&#xe610;" 
d="M383 87q-8 0 -14 6t-6 14.5t6 14.5l273 278l-273 279q-6 6 -6 14.5t6 14.5t14.5 6t14.5 -6l288 -293q5 -6 5 -14.5t-5 -14.5l-288 -293q-6 -6 -15 -6z" />
    <glyph glyph-name="sitting" unicode="&#xe612;" 
d="M1004 467l-132 22q-12 40 -33 77l78 111q10 14 -2 26l-87 86q-12 13 -26 3l-109 -79q-37 21 -78 33l-23 132q-2 7 -7.5 12t-13.5 5h-122q-7 0 -13 -5t-7 -12l-22 -132q-41 -11 -78 -32l-108 78q-14 10 -27 -2l-86 -87q-12 -12 -3 -26l77 -109q-21 -38 -33 -79l-131 -22
q-7 -1 -12 -7t-5 -13v-123q0 -7 5 -12.5t12 -7.5l131 -23q12 -41 33 -79l-78 -108q-10 -14 2 -26l87 -87q12 -12 26 -2l110 77q37 -21 78 -33l22 -131q1 -8 7 -12.5t13 -4.5h122q8 0 13.5 4.5t7.5 11.5l23 133q41 12 78 32l110 -77q14 -10 26 2l87 87q12 12 2 26l-78 109
q20 37 32 78l132 23q8 2 12.5 7.5t4.5 12.5v123q0 7 -4.5 13t-12.5 7zM980 342l-128 -23q-13 -2 -17 -15q-12 -49 -37 -91q-7 -12 1 -23l76 -105l-62 -63l-107 75q-11 8 -23 1q-42 -26 -91 -38q-13 -3 -15 -16l-23 -129h-88l-21 128q-2 13 -15 16q-49 13 -92 38q-11 7 -22 0
l-106 -75l-62 63l75 104q7 11 0 23q-26 43 -38 92q-3 13 -16 15l-127 23v88l127 21q13 2 16 15q13 49 39 92q6 11 -1 22l-74 106l62 62l105 -75q11 -8 23 -1q42 26 91 38q13 3 16 17l20 127h88l23 -128q2 -13 15 -16q49 -12 91 -38q12 -7 23 0l105 76l63 -62l-76 -107
q-7 -11 0 -22q25 -43 37 -91q4 -13 17 -15l128 -21v-88v0zM695 385q0 -9 -6 -15t-14.5 -6t-14.5 6t-6 15q0 59 -42 101t-101 42t-101 -42t-42 -101t42 -101t101 -42q51 0 90 32q6 5 14.5 4t14 -7.5t4.5 -15t-8 -13.5q-50 -41 -115 -41q-76 0 -129.5 54t-53.5 130t53.5 129.5
t129.5 53.5t130 -53.5t54 -129.5z" />
    <glyph glyph-name="jiahao" unicode="&#xe617;" 
d="M512 700q79 0 151 -30q70 -30 123.5 -83.5t83.5 -123.5q30 -72 30 -151t-30 -151q-30 -70 -83.5 -123.5t-123.5 -83.5q-72 -30 -151 -30t-151 30q-70 30 -123.5 83.5t-83.5 123.5q-30 72 -30 151t30 151q30 70 83.5 123.5t123.5 83.5q72 30 151 30zM512 760
q-122 0 -225 -60t-163 -163t-60 -225t60 -225t163 -163t225 -60t225 60t163 163t60 225t-60 225t-163 163t-225 60v0zM727 342h-185v185q0 12 -9 21t-21 9t-21 -9t-9 -21v-185h-185q-12 0 -21 -9t-9 -21t9 -21t21 -9h185v-185q0 -12 9 -21t21 -9t21 9t9 21v185h185
q12 0 21 9t9 21t-9 21t-21 9z" />
    <glyph glyph-name="weibiaoti1" unicode="&#xe623;" 
d="M1024 115h-48q-7 68 -58 114t-120 46q-18 0 -36 -4q19 20 33 45q1 0 3.5 -0.5t4.5 -0.5q46 0 78.5 33t32.5 79t-32.5 78.5t-78.5 32.5h-4.5h-3.5q-12 21 -30 40q19 5 38 5q64 0 110 -46t46 -110q0 -40 -18.5 -74t-50.5 -55q55 -24 91.5 -73t42.5 -110zM671 235
q97 -30 159 -112t62 -187h-50q0 1 0.5 2.5t0.5 2.5q0 111 -78.5 189t-189.5 78t-189 -78t-78 -189v-2.5v-2.5h-40q0 97 53.5 175.5t140.5 113.5q-57 28 -92.5 82t-35.5 120q0 92 65.5 157.5t158 65.5t157.5 -65.5t65 -157.5q0 -60 -29.5 -111t-79.5 -81zM557.5 605
q-73.5 0 -126 -52t-52.5 -126t52.5 -126.5t126 -52.5t126 52.5t52.5 126.5t-52.5 126t-126 52zM357 282v-22q0 -5 -3.5 -8.5t-7.5 -3.5h-145v-144q0 -5 -3.5 -8.5t-7.5 -3.5h-23q-4 0 -7.5 3.5t-3.5 8.5v144h-145q-4 0 -7.5 3.5t-3.5 8.5v22q0 5 3.5 8t7.5 3h145v145
q0 5 3.5 8t7.5 3h23q4 0 7.5 -3t3.5 -8v-145h145q4 0 7.5 -3t3.5 -8z" />
    <glyph glyph-name="wenhao" unicode="&#xe629;" 
d="M509 580q-60 0 -102 -28.5t-58 -78.5q-4 -11 -4 -24q0 -22 15 -36t37 -14q36 0 52 38q15 42 57 42q24 0 36.5 -14.5t12.5 -34.5q0 -17 -5.5 -31t-24.5 -36l-43 -52q-19 -22 -26.5 -42t-7.5 -49v-6q0 -24 15 -39t39 -15t39.5 15.5t15.5 38.5v5q0 19 18 40l47 56
q46 54 46 116q0 66 -44.5 107.5t-114.5 41.5zM504 137q-27 0 -46.5 -19t-19.5 -46t19.5 -46.5t46.5 -19.5q26 0 45.5 19.5t19.5 46.5t-19.5 46t-45.5 19zM614 812h-204q-111 0 -205.5 -55t-149.5 -149.5t-55 -205.5v-204q0 -111 55 -205.5t149.5 -149.5t205.5 -55h204
q111 0 205.5 55t149.5 149.5t55 205.5v204q0 111 -55 205.5t-149.5 149.5t-205.5 55zM937 198q0 -88 -43.5 -162t-117.5 -117.5t-162 -43.5h-204q-88 0 -162 43.5t-117.5 117.5t-43.5 162v204q0 88 43.5 162t117.5 117.5t162 43.5h204q88 0 162 -43.5t117.5 -117.5
t43.5 -162v-204z" />
    <glyph glyph-name="markfill" unicode="&#xe615;" 
d="M512 832q-185 0 -316.5 -112.5t-131.5 -271.5q0 -137 100.5 -242.5t256.5 -133.5l65 -91q10 -13 26 -13t26 13l65 91q156 28 256.5 133.5t100.5 242.5q0 159 -131.5 271.5t-316.5 112.5zM288.5 384q-26.5 0 -45.5 19t-19 45t19 45t45.5 19t45 -19t18.5 -45t-18.5 -45
t-45 -19zM512.5 384q-26.5 0 -45.5 19t-19 45t19 45t45.5 19t45 -19t18.5 -45t-18.5 -45t-45 -19zM736.5 384q-26.5 0 -45.5 19t-19 45t19 45t45.5 19t45 -19t18.5 -45t-18.5 -45t-45 -19z" />
    <glyph glyph-name="mark" unicode="&#xe616;" 
d="M512 -32q-16 0 -26 13l-65 91q-156 28 -256.5 133.5t-100.5 242.5q0 159 131.5 271.5t316.5 112.5t316.5 -112.5t131.5 -271.5q0 -137 -100.5 -242.5t-256.5 -133.5l-65 -91q-10 -13 -26 -13zM512 768q-159 0 -271.5 -94t-112.5 -226q0 -116 89.5 -205t226.5 -110
q13 -2 21 -13l47 -65l47 65q7 11 21 13q137 21 226.5 110t89.5 205q0 132 -112.5 226t-271.5 94zM288.5 384q-26.5 0 -45.5 19t-19 45t19 45t45.5 19t45 -19t18.5 -45t-18.5 -45t-45 -19zM288 448v0v-32v32zM736.5 384q-26.5 0 -45.5 19t-19 45t19 45t45.5 19t45 -19
t18.5 -45t-18.5 -45t-45 -19zM736 448v0v-32v32zM512.5 384q-26.5 0 -45.5 19t-19 45t19 45t45.5 19t45 -19t18.5 -45t-18.5 -45t-45 -19zM512 448v0v-32v32z" />
    <glyph glyph-name="cuowu" unicode="&#xe60a;" 
d="M564 276l289 288q10 10 10 24.5t-10 25t-24.5 10.5t-24.5 -11l-290 -287l-286 287q-11 11 -25 11t-24.5 -10.5t-10.5 -25t10 -24.5l287 -287l-289 -288q-10 -10 -10 -24.5t10 -25t24.5 -10.5t24.5 11l289 287l289 -290q11 -10 25.5 -10t24.5 10t10 24.5t-10 24.5
l-289 290v0zM564 276z" />
    <glyph glyph-name="taiyang" unicode="&#xe601;" 
d="M512 536q-98 0 -167 -69t-69 -167t69 -167t167 -69t167 69t69 167t-69 167t-167 69zM512 655q16 0 27.5 11.5t11.5 27.5v79q0 16 -11.5 27.5t-27.5 11.5t-27.5 -11.5t-11.5 -27.5v-79q0 -16 11.5 -27.5t27.5 -11.5zM512 -54q-16 0 -27.5 -11.5t-11.5 -28.5v-78
q0 -17 11.5 -28.5t27.5 -11.5t27.5 11.5t11.5 28.5v78q0 17 -11.5 28.5t-27.5 11.5zM984 339h-78q-17 0 -28.5 -11.5t-11.5 -27.5t11.5 -27.5t28.5 -11.5h78q17 0 28.5 11.5t11.5 27.5t-11.5 27.5t-28.5 11.5zM157 300q0 16 -11.5 27.5t-27.5 11.5h-79q-16 0 -27.5 -11.5
t-11.5 -27.5t11.5 -27.5t27.5 -11.5h79q16 0 27.5 11.5t11.5 27.5zM818 551l56 55q11 12 11 28.5t-11.5 28t-27.5 11.5t-28 -12l-56 -56q-11 -11 -11 -27.5t11.5 -28t28 -11.5t27.5 12zM206 50l-56 -56q-12 -12 -12 -28t11.5 -27.5t28 -11.5t28.5 11l55 56q12 11 12 27.5
t-11.5 28t-28 11.5t-27.5 -11zM818 50q-11 11 -27.5 11t-28 -11.5t-11.5 -28t11 -27.5l56 -56q12 -11 28 -11t27.5 11.5t11.5 27.5t-11 28zM206 662q-12 12 -28.5 12t-28 -11.5t-11.5 -28t12 -28.5l56 -55q11 -12 27.5 -12t28 11.5t11.5 28t-12 27.5z" />
    <glyph glyph-name="zuobianfangxiang" unicode="&#xe60d;" 
d="M750 -133l2 2q18 18 18 44.5t-18 44.5l-388 388q-19 19 -45 19t-45 -19l-2 -1q-18 -19 -18 -45t18 -45l388 -388q19 -18 45 -18t45 18zM752 731l-2 2q-19 18 -45 18t-45 -18l-388 -388q-18 -19 -18 -45t18 -45l2 -1q19 -19 45 -19t45 19l388 388q18 18 18 44.5t-18 44.5z
" />
    <glyph glyph-name="iconfontyoubianfangxiang" unicode="&#xe60e;" 
d="M79 526l2 2q18 18 44.5 18t44.5 -18l388 -388q19 -19 19 -45t-19 -45l-1 -2q-19 -18 -45 -18t-45 18l-388 388q-18 19 -18 45t18 45zM943 528l2 -2q18 -19 18 -45t-18 -45l-388 -388q-19 -18 -45 -18t-45 18l-1 2q-19 19 -19 45t19 45l388 388q18 18 44.5 18t44.5 -18z
" />
    <glyph glyph-name="iconfontzuobianfangxiang" unicode="&#xe60f;" 
d="M79 50l2 -2q18 -18 44.5 -18t44.5 18l388 388q19 19 19 45t-19 45l-1 2q-19 18 -45 18t-45 -18l-388 -388q-18 -19 -18 -45t18 -45zM943 48l2 2q18 19 18 45t-18 45l-388 388q-19 18 -45 18t-45 -18l-1 -2q-19 -19 -19 -45t19 -45l388 -388q18 -18 44.5 -18t44.5 18z" />
    <glyph glyph-name="weibiaoti101" unicode="&#xe62e;" 
d="M509 664l-443 -444h180v-291h168q45 96 136 149v48q-105 -53 -161 -155h-102v291h-123l345 345l345 -345h-123v-291h-111v-42h152v291h180l-443 444v0zM509 664z" />
    <glyph glyph-name="xiugaixinxi" unicode="&#xe603;" horiz-adv-x="1028" 
d="M322 247q-1 -2 -2 -3l-51 -189q-5 -18 8 -32q9 -9 23 -9q4 0 8 1l188 51h0.5h0.5q3 0 5 2l503 503q23 23 23 57q0 40 -29 69l-48 47q-29 30 -69 30q-34 0 -57 -23l-502 -503l-0.5 -0.5zM956 620l-50 -50l-81 82l49 49q6 6 15.5 5.5t16.5 -7.5l47 -47q8 -8 8 -18
q0 -9 -5 -14zM411 239l363 362l81 -82l-362 -362l-82 82v0v0zM345 92l27 96l69 -70l-96 -26v0v0zM988 421q-15 0 -25 -10t-10 -25v-468q0 -18 -13 -31.5t-32 -13.5h-792q-18 0 -31 13.5t-13 31.5v764q0 19 13 32t31 13h510q15 0 25 10t10 24.5t-10 24.5t-25 10h-515
q-45 0 -77 -31.5t-32 -76.5v-775q0 -45 32 -77t77 -32h803q45 0 76.5 32t31.5 77v473q0 15 -10 25t-24 10v0z" />
    <glyph glyph-name="shangsheng" unicode="&#xe64a;" 
d="M736 522q0 -22 -16.5 -37t-39.5 -15q-25 0 -42 17v0l-70 73v-655q0 -22 -16.5 -37t-39.5 -15t-39.5 15t-16.5 37v655l-70 -73v0q-17 -17 -42 -17q-23 0 -39.5 15t-16.5 37q0 20 15 35v0l167 174h1q16 17 41 17t41 -17h1l167 -174v0q15 -15 15 -35z" />
    <glyph glyph-name="xiajiang" unicode="&#xe64b;" 
d="M721 44v0l-167 -174h-1q-16 -17 -41 -17t-41 17h-1l-167 174v0q-15 15 -15 35q0 21 16.5 36.5t39.5 15.5q25 0 42 -18v0l70 -72v655q0 21 16.5 36.5t39.5 15.5t39.5 -15.5t16.5 -36.5v-655l70 72v0q17 18 42 18q23 0 39.5 -15.5t16.5 -36.5q0 -20 -15 -35z" />
    <glyph glyph-name="taiyang1" unicode="&#xe642;" 
d="M495 547q-74 0 -126 -52.5t-52 -126.5t52 -126.5t126 -52.5t126.5 52.5t52.5 126.5t-52.5 126.5t-126.5 52.5zM495 279q-37 0 -63 26t-26 63t26 63t63 26t63.5 -26t26.5 -63t-26.5 -63t-63.5 -26zM495.5 636q18.5 0 31.5 13t13 32v89q0 19 -13 32t-31.5 13t-31.5 -13
t-13 -32v-89q0 -19 13 -32t31.5 -13zM716.5 545q18.5 0 31.5 13l63 63q13 13 13 31.5t-13 31.5t-31.5 13t-31.5 -13l-63 -63q-13 -13 -13 -31.5t13 -31.5t31.5 -13zM897 413h-89q-18 0 -31.5 -13.5t-13.5 -32t13.5 -31.5t31.5 -13h89q19 0 32 13t13 31.5t-13 32t-32 13.5z
M748 178q-13 13 -31.5 13t-31.5 -13t-13 -31.5t13 -31.5l63 -63q13 -13 31.5 -13t31.5 13t13 31.5t-13 31.5zM495.5 100q-18.5 0 -32 -13t-13.5 -32v-89q0 -19 13.5 -32t32 -13t31.5 13t13 32v89q0 19 -13 32t-31.5 13zM242 179l-63 -64q-13 -13 -13 -31.5t13 -31.5
t31.5 -13t31.5 13l64 63q13 13 13 31.5t-13.5 32t-31.5 13.5t-32 -13zM227 368.5q0 18.5 -13 31.5t-32 13h-89q-18 0 -31.5 -13t-13.5 -31.5t13.5 -32t31.5 -13.5h89q19 0 32 13.5t13 32zM243 558q13 -13 31.5 -13t31.5 13t13 31.5t-13 31.5l-63 63q-14 13 -32 13t-31.5 -13
t-13.5 -31.5t13 -31.5z" />
    <glyph glyph-name="liebiao" unicode="&#xe640;" 
d="M107 644h223q10 22 24 44h-247q-8 0 -14.5 -6.5t-6.5 -15.5t6.5 -15.5t14.5 -6.5v0zM107 318h262q-17 22 -28 44h-234q-9 0 -15 -6.5t-6 -15.5t6 -15.5t15 -6.5zM803 36h-696q-9 0 -15 -6.5t-6 -15.5t6 -15.5t15 -6.5h696q9 0 15.5 6.5t6.5 15.5t-6.5 15.5t-15.5 6.5z
M931 188l-130 130q42 37 65.5 87.5t23.5 108.5q0 108 -76.5 184.5t-184.5 76.5t-184.5 -76.5t-76.5 -184.5t76.5 -184.5t184.5 -76.5q74 0 137 39l134 -134q7 -7 16 -7t15 6.5t6 15.5t-6 15v0zM629 296q-90 0 -153.5 64t-63.5 154t63.5 153.5t153.5 63.5t153.5 -63.5
t63.5 -153.5t-63.5 -154t-153.5 -64v0z" />
    <glyph glyph-name="chaodaowodeyeji" unicode="&#xe651;" 
d="M640 479q-14 -80 -40 -126q49 24 73 73q16 33 17 77h-47q-1 -13 -3 -24zM512 827q-90 0 -172 -35t-141 -94t-94 -141t-35 -172t35 -172t94 -141t141 -94t172 -35t172 35t141 94t94 141t35 172t-35 172t-94 141t-141 94t-172 35zM699 413q-20 -42 -58 -70q-32 -23 -71 -33
q-22 -22 -43 -28v-28v-5t0.5 -5t5.5 -10.5t13.5 -13t27.5 -10.5t45 -5h10q2 0 2 -2v-25q0 -2 -2 -2h-234q-2 0 -2 2v25q0 2 2 2h10q28 0 47.5 5t28 13.5t12 14t4.5 11.5v33q-22 6 -43 28q-40 10 -71 33q-38 28 -58 70q-20 40 -21 90v2v6v3v2v14v3h2h72v57q0 2 2 2h131h0.5
h1.5h130q2 0 3 -2q0 -25 -1 -57h75v-7q1 -68 -21 -113zM381 503h-47q1 -44 17 -77q24 -48 72 -73q-26 47 -39 126q-2 11 -3 24z" />
    <glyph glyph-name="lishi01" unicode="&#xe60b;" 
d="M510.5 663q-16.5 0 -28 -12t-11.5 -28v-263q0 -17 11.5 -28.5t28.5 -11.5h279q16 0 27.5 11.5t11.5 28t-11.5 28t-27.5 11.5h-240v224q0 16 -11.5 28t-28 12zM535.5 832q-90.5 0 -173.5 -35.5t-143 -95.5t-95.5 -143t-35.5 -173v0h-78l119 -144l118 144h-79v0
q0 99 49 184t134 134.5t184.5 49.5t184.5 -49.5t134.5 -134.5t49.5 -184.5t-49.5 -184.5t-134.5 -134t-184 -49q-92 0 -173 43t-132 119q-9 13 -25.5 16.5t-30 -6t-16.5 -25.5t6 -30q63 -92 161 -144.5t210 -52.5q90 0 173 35.5t143 95.5t95.5 143t35.5 173.5t-35.5 173.5
t-95.5 143t-143 95.5t-173.5 35.5z" />
    <glyph glyph-name="miaosha" unicode="&#xe62c;" 
d="M299 895q10 3 19.5 -2.5t12.5 -16t-2.5 -20t-15.5 -11.5q-73 -21 -138 -59q-65 -39 -118 -94q-7 -7 -18 -7.5t-19 7t-8 18.5t8 19q57 59 128 101.5t151 64.5v0zM244 -72q-9 5 -12 15.5t2 20t15.5 13t19.5 -1.5q46 -25 95 -37.5t101 -12.5q84 0 159.5 32t132.5 89t89 132
t32 159t-32 159.5t-89 132.5t-132.5 88.5t-159.5 31.5t-159 -31.5t-132.5 -88.5t-89 -132.5t-31.5 -159.5q0 -74 25 -142q25 -69 73 -125q7 -8 6 -19t-9 -18t-19 -6t-18 9q-54 64 -82.5 141t-28.5 160q0 95 36 179.5t100.5 149t149.5 100.5t179.5 36t179.5 -36t149.5 -100.5
t100.5 -149t36 -179t-36 -179.5t-100.5 -149.5t-149.5 -100t-180 -35.5q-57 0 -114 14q-56 14 -107 41v0zM425 639q0 10 7.5 18t18.5 8t18.5 -8t7.5 -18v-276h238q11 0 19 -7.5t8 -18.5t-8 -18.5t-19 -7.5h-264q-11 0 -18.5 7.5t-7.5 18.5v302zM911 729q8 -8 7.5 -19
t-8 -18.5t-18.5 -7t-19 7.5q-53 55 -117.5 93.5t-137.5 59.5q-11 2 -16 11.5t-2 20t12 16t20 2.5q79 -22 150.5 -64.5t128.5 -101.5v0z" />
    <glyph glyph-name="tianjialianxiren" unicode="&#xe626;" 
d="M901 239h-82v83q0 11 -8.5 19t-19.5 8t-19 -8t-8 -19v-83h-83q-11 0 -19 -8t-8 -19t8 -19.5t19 -8.5h83v-82q0 -11 8 -19t19 -8t19.5 8t8.5 19v82h82q11 0 19 8.5t8 19.5t-8 19t-19 8zM764 20h-572q-7 0 -11 5q-4 4 -3 10q20 107 105 176.5t195 69.5h1h2q111 2 190 82
t79 192q0 114 -80.5 194.5t-194.5 80.5t-194.5 -80.5t-80.5 -194.5q0 -69 32 -128.5t87 -97.5q-85 -38 -144.5 -111.5t-77.5 -167.5q-8 -43 20 -78q29 -35 75 -35h572q17 0 29 12t12 29t-12 29.5t-29 12.5zM475.5 748q79.5 0 135.5 -56.5t56 -136t-56 -136t-135.5 -56.5
t-136 56.5t-56.5 136t56.5 136t136 56.5z" />
    <glyph glyph-name="roundleftfill" unicode="&#xe618;" 
d="M512 832q-185 0 -316.5 -131.5t-131.5 -316.5t131.5 -316.5t316.5 -131.5t316.5 131.5t131.5 316.5t-131.5 316.5t-316.5 131.5zM566 248q10 -9 10 -22.5t-9.5 -22.5t-23 -9t-22.5 9l-159 160v0v0q-3 3 -6 8q0 1 -0.5 1.5l-0.5 0.5q-8 20 7 35l160 158q10 10 23 10
t22.5 -9.5t9.5 -23t-10 -22.5l-137 -136z" />
    <glyph glyph-name="triangledownfill" unicode="&#xe619;" 
d="M957 557.5q-9 18.5 -29 18.5h-832q-20 0 -29 -18.5t5 -34.5l416 -485q9 -11 24 -11t24 11l416 485q14 16 5 34.5z" />
    <glyph glyph-name="triangleupfill" unicode="&#xe61a;" 
d="M952 181l-416 485q-9 11 -24 11t-24 -11l-416 -485q-14 -16 -5 -34.5t29 -18.5h832q20 0 29 18.5t-5 34.5z" />
    <glyph glyph-name="concentricpiechart" unicode="&#xe63d;" 
d="M780 28q-90 -67 -194 -85l-0.5 -0.5l-0.5 -0.5q-36 -6 -73 -6q-91 0 -174 36t-142.5 96t-95.5 143.5t-36 174.5q0 110 51 206t138.5 158t194.5 77v-196q-84 -22 -138 -90.5t-54 -156.5q0 -106 75 -181t181 -75q69 0 131 37zM854 673l-137 -137q51 -69 51 -152
q0 -98 -67 -171l136 -137q58 62 90.5 141t32.5 167q0 164 -106 289zM806 721q-127 111 -294 111v-192q87 0 158 -56z" />
    <glyph glyph-name="cart" unicode="&#xe61e;" horiz-adv-x="1186" 
d="M992 285q-7 -16 -24 -27t-36 -11h-533l37 -132q4 -1 5 -1h492q13 3 25 3q51 0 86.5 -36t35.5 -86.5t-35.5 -86.5t-86 -36t-86 36t-35.5 86q0 37 20 68h-340q20 -31 20 -68q0 -50 -35.5 -86t-86 -36t-86 36t-35.5 86q0 42 25 75t65 43l-165 703q-2 12 -13.5 20.5
t-24.5 8.5h-142q-10 0 -18 7.5t-8 18.5t8 18.5t18 7.5h142q31 0 56.5 -20.5t32.5 -49.5l16 -73h843q24 0 36 -19q13 -20 3 -44zM958 -76q29 0 50 20.5t21 49.5q0 28 -19.5 48.5t-46.5 22.5q-6 -3 -11 -3h-13q-22 -6 -36.5 -25t-14.5 -43q0 -29 20.5 -49.5t49.5 -20.5z
M345 -6q0 -29 20.5 -49.5t50 -20.5t50 20.5t20.5 49.5q0 24 -14.5 43t-36.5 25h-13q-6 0 -11 3q-28 -2 -47 -22.5t-19 -48.5zM297 701l90 -402h545q10 0 13 7l172 395h-820z" />
    <glyph glyph-name="delete" unicode="&#xe61f;" 
d="M678 640v90q0 28 -16.5 44.5t-45.5 16.5h-208q-29 0 -45.5 -16.5t-16.5 -44.5v-90h-180v-60h60v-512q0 -41 24 -66t66 -25h392q41 0 65.5 24t24.5 67v512h60v60h-180zM407 730h210l-1 -90h-209v90zM738 38h-452v542h452v-542zM467 520h-59l-1 -392h60v392zM617 520h-60
v-392h60v392z" />
    <glyph glyph-name="share" unicode="&#xe621;" 
d="M752 272q-41 0 -75 -21.5t-52 -56.5l-258 156q17 32 17 66q0 22 -8 46l269 146q44 -48 107 -48q60 0 102 42t42 102t-42 102t-102 42t-102 -42t-42 -102q0 -18 6 -40l-272 -147q-42 43 -102 43t-102 -42t-42 -102t42 -102t102 -42q47 0 85 29l283 -172v-0.5v-0.5
q0 -60 42 -102t102 -42t102 42t42 102t-42 102t-102 42zM752 784q33 0 56.5 -23.5t23.5 -56.5t-23.5 -56.5t-56.5 -23.5t-56.5 23.5t-23.5 56.5t23.5 56.5t56.5 23.5zM240 336q-33 0 -56.5 23.5t-23.5 56.5t23.5 56.5t56.5 23.5t56.5 -23.5t23.5 -56.5t-23.5 -56.5
t-56.5 -23.5zM752 48q-33 0 -56.5 23.5t-23.5 56.5t23.5 56.5t56.5 23.5t56.5 -23.5t23.5 -56.5t-23.5 -56.5t-56.5 -23.5z" />
    <glyph glyph-name="bingtu" unicode="&#xe63f;" 
d="M510 829q-91 0 -174 -35t-143 -95t-95.5 -143t-35.5 -174t35.5 -174t95.5 -143t143 -95.5t174 -35.5t174 35.5t143 95.5t95.5 143t35.5 174t-35.5 174t-95.5 143t-143 95t-174 35v0zM510 18q-99 0 -182.5 48.5t-132.5 132.5t-49 183t49 182.5t132.5 132.5t182.5 49v-364
l258 -258q-51 -50 -117.5 -78t-140.5 -28v0zM510 18z" />
    <glyph glyph-name="tianjialianxiren1" unicode="&#xe627;" horiz-adv-x="1150" 
d="M1002 128v0h-128v128q0 18 -12.5 30.5t-30 12.5t-30 -12.5t-12.5 -30.5v-128h-128v0q-18 0 -30.5 -12.5t-12.5 -30t12.5 -30t30.5 -12.5v0h128v-128q0 -18 12.5 -30.5t30 -12.5t30 12.5t12.5 30.5v128h128v0q18 0 30.5 12.5t12.5 30t-12.5 30t-30.5 12.5zM575 -43v0h-330
q-18 0 -30.5 12.5t-12.5 30.5q0 6 2 12q32 125 135.5 206t235.5 81q72 0 139 -26v0v0q7 -3 15 -3q17 0 29.5 12.5t12.5 30.5q0 28 -25 39v0q59 41 93.5 105.5t34.5 139.5q0 124 -87.5 211.5t-211 87.5t-211 -87.5t-87.5 -211.5q0 -75 34.5 -139.5t93.5 -105.5
q-133 -52 -216 -171t-83 -266q0 -18 12.5 -30.5t30.5 -12.5h426v0v0q18 0 30.5 12.5t12.5 30t-12.5 30t-30.5 12.5zM362 597.5q0 88.5 62.5 151t151 62.5t151 -62.5t62.5 -151t-62.5 -151t-151 -62.5t-151 62.5t-62.5 151z" />
    <glyph glyph-name="fenzu" unicode="&#xe61b;" 
d="M909 285q-23 23 -69 23h-54v64q0 11 -7.5 19t-18.5 8h-232v61h54q46 0 69 23t23 69v160q0 45 -23 68t-69 23h-159q-46 0 -69 -23t-23 -68v-160q0 -46 23 -69t69 -23h52v-61h-212q-11 0 -19 -8t-8 -19v-64h-52q-46 0 -69 -23t-23 -69v-160q0 -45 23 -68t69 -23h159
q46 0 69 23t23 68v160q0 46 -23 69t-69 23h-54v38h444v-38h-52q-46 0 -69 -23t-23 -69v-160q0 -45 23 -68t69 -23h159q46 0 69 23t23 68v160q0 46 -23 69zM382 56q0 -23 -7.5 -30.5t-31.5 -7.5h-159q-24 0 -31.5 7.5t-7.5 30.5v160q0 24 7.5 31.5t31.5 7.5h159
q24 0 31.5 -7.5t7.5 -31.5v-160zM384 712q0 23 7.5 30.5t31.5 7.5h159q24 0 31.5 -7.5t7.5 -30.5v-160q0 -24 -7.5 -31.5t-31.5 -7.5h-159q-24 0 -31.5 7.5t-7.5 31.5v160zM879 56q0 -23 -7.5 -30.5t-31.5 -7.5h-159q-24 0 -31.5 7.5t-7.5 30.5v160q0 24 7.5 31.5t31.5 7.5
h159q24 0 31.5 -7.5t7.5 -31.5v-160z" />
    <glyph glyph-name="duanxin" unicode="&#xe62a;" 
d="M958 609q0 48 -34 82t-82 34h-661q-48 0 -82 -34t-34 -82v-449q0 -48 34 -82t82 -34h661q48 0 82 34t34 82v449zM844 684q16 0 33 -9l-346 -328l-2 -2q-5 -4 -15.5 -4t-15.5 4l-2 2l-353 324q19 13 40 13h661zM916 160q0 -31 -21 -52.5t-51 -21.5h-661q-31 0 -53 21.5
t-22 52.5v448q0 15 7 30l351 -322q17 -18 47.5 -18t46.5 18l347 329q9 -16 9 -37v-448z" />
    <glyph glyph-name="1" unicode="&#xe6c1;" 
d="M931 267q-19 19 -43 8q-70 -30 -146 -30q-74 0 -141.5 28t-119.5 80q-80 81 -101.5 191.5t23.5 215.5q11 24 -8 43t-43 8q-79 -33 -140 -94q-63 -64 -97 -145.5t-34 -171t34 -171t97.5 -145t145 -97.5t171 -34t171 34t145.5 97q61 61 94 140q11 24 -8 43z" />
    <glyph glyph-name="click-rate" unicode="&#xe620;" 
d="M456 488l87 -505q65 66 118 113l117 -157q8 -11 22 -1l50 37q15 10 6 22l-114 152q27 10 66 23t65 20l26 8zM316 255l-130 -95q-15 -11 -17 -29t9.5 -33.5t30 -18.5t33.5 7l130 95q15 11 17 30t-9.5 34t-30 18t-33.5 -8zM927.5 645.5q-11.5 15.5 -30 18.5t-33.5 -8
l-129 -95q-15 -11 -17.5 -29t9 -33.5t30.5 -18.5t34 8l129 94q15 11 17 29.5t-9.5 34zM326 743q-11 15 -29.5 18t-34.5 -8q-14 -11 -16.5 -29t8.5 -33l101 -133q11 -15 30 -18t33 8q15 11 17.5 29.5t-8.5 33.5zM580 586q19 -3 34 8t18 29l20 160q2 19 -9.5 34t-30.5 18
t-34 -7.5t-17 -29.5l-20 -160q-3 -19 8.5 -34t30.5 -18zM336 407q2 19 -9.5 34t-30.5 18l-162 27q-19 2 -34 -8.5t-17 -29.5q-3 -19 8.5 -34t30.5 -18l163 -26q18 -4 33 7t18 30z" />
    <glyph glyph-name="fangxiangyou" unicode="&#xe611;" 
d="M745 384q0 -17 -12 -29l-384 -384q-12 -12 -29 -12t-29 12t-12 29t12 29l355 355l-355 355q-12 12 -12 29t12 29t29 12t29 -12l384 -384q12 -12 12 -29z" />
    <glyph glyph-name="fangxiangzuo" unicode="&#xe613;" 
d="M279 384q0 17 12 29l384 384q12 12 29 12t29 -12t12 -29t-12 -29l-355 -355l355 -355q12 -12 12 -29t-12 -29t-29 -12t-29 12l-384 384q-12 12 -12 29z" />
    <glyph glyph-name="dianzan" unicode="&#xe622;" 
d="M885 473h-238q19 69 25.5 126.5t2 93.5t-14 63.5t-23 41t-25.5 21.5t-20 10l-9 2q-22 0 -35.5 -8.5t-16 -18.5t-3.5 -21.5t-2 -12.5q0 -47 -18 -94.5t-44 -82.5t-52 -63t-44 -43l-19 -14v-472q0 -22 17.5 -37t37 -21t34.5 -6h357q10 0 19.5 9t16.5 22t13 26t9 22l3 10
q40 133 62 230.5t24 128.5l3 31q0 17 -6.5 29.5t-15 17.5t-17.5 7.5t-15 2.5h-6v0v0zM885 473zM252 473h-143q-13 0 -20.5 -7.5t-8.5 -14.5l-1 -7l30 -476q0 -14 7.5 -21.5t15.5 -8.5l7 -1h123q12 0 18.5 5t6.5 10l1 5v480q0 16 -9 25t-18 10l-9 1v0v0zM252 473z" />
    <glyph glyph-name="chaxun" unicode="&#xe635;" 
d="M939 -30l-21 -21q-11 -11 -28 -11t-29 11l-146 152q-114 -79 -241 -79q-108 0 -200.5 55t-147 149t-54.5 204q0 108 54.5 200.5t148.5 147t204.5 54.5t204.5 -54.5t148.5 -148.5t54.5 -204q0 -143 -89 -256l146 -147q9 -7 8 -24t-13 -28v0v0zM480 727q-125 0 -214 -87.5
t-89 -209.5t89 -210t214 -88t214 88t89 210q0 79 -42 148t-112 109t-149 40v0v0zM480 727z" />
    <glyph glyph-name="baobiao" unicode="&#xe63a;" 
d="M192 666q0 16 11.5 27.5t27.5 11.5h562q16 0 27.5 -11.5t11.5 -27.5v-122h64v122q0 42 -30 72.5t-73 30.5h-562q-43 -1 -73 -31t-30 -72v-218h64v218zM832 103q0 -16 -11.5 -27.5t-27.5 -11.5h-562q-16 0 -27.5 11.5t-11.5 27.5v121h-64v-121q0 -43 30 -73t73 -30h562
q43 0 73 30t30 73v217h-64v-217zM955 497q-7 11 -20 14t-24 -4l-331 -210l-190 191l-309 -172q-12 -6 -15.5 -19t2.5 -24q7 -12 19.5 -15.5t24.5 2.5l267 149l193 -193l374 238q11 7 13.5 19.5t-4.5 23.5z" />
    <glyph glyph-name="zuobianfangxiang-copy" unicode="&#xe614;" 
d="M274 817l-2 -2q-18 -18 -18 -44.5t18 -44.5l388 -388q19 -19 45 -19t45 19l2 1q18 19 18 45t-18 45l-388 388q-19 18 -45 18t-45 -18zM272 -47l2 -2q19 -18 45 -18t45 18l388 388q18 19 18 45t-18 45l-2 1q-19 19 -45 19t-45 -19l-388 -388q-18 -18 -18 -44.5t18 -44.5z
" />
    <glyph glyph-name="deng" unicode="&#xe604;" 
d="M225 713q-9 8 -21.5 8t-21.5 -8.5t-9 -21.5t9 -22l43 -43q9 -9 21.5 -9t21.5 9t9 22t-9 21l-43 44v0v0v0zM803 713l-43 -44q-9 -8 -9 -21t9 -22t21.5 -9t21.5 9l43 43q9 9 9 22t-9 21.5t-21.5 8.5t-21.5 -8v0v0v0zM149 472h-61q-13 0 -22 -9t-9 -21.5t9 -21.5t22 -9h61
q12 0 21 9t9 21.5t-9 21.5t-21 9v0v0v0zM940 472h-61q-12 0 -21 -9t-9 -21.5t9 -21.5t21 -9h61q13 0 22 9t9 21.5t-9 21.5t-22 9v0v0v0zM483 822v-61q0 -13 9 -22t22 -9t21.5 9t8.5 22v61q0 12 -8.5 21t-21.5 9t-22 -9t-9 -21v0v0v0zM301 396q0 88 62.5 150.5t150.5 62.5
t150.5 -62.5t62.5 -151t-62.5 -150.5t-150.5 -62t-150.5 62t-62.5 151v0v0v0zM240 396q0 -114 80.5 -194t194 -80t193.5 80t80 193.5t-80 194t-193.5 80.5t-194 -80.5t-80.5 -193.5v0v0v0zM453 -31q0 -12 9 -21t21 -9h61q13 0 22 9t9 21.5t-9 21.5t-22 9h-61q-12 0 -21 -9
t-9 -22v0v0v0zM392 61q0 -13 9 -21.5t22 -8.5h182q13 0 22 8.5t9 21.5t-9 21.5t-22 8.5h-182q-13 0 -22 -8.5t-9 -21.5v0v0v0zM392 61z" />
    <glyph glyph-name="journey2line" unicode="&#xe624;" horiz-adv-x="1029" 
d="M303 595v10q0 121 -1 131q-1 30 19 50t50 19h285q31 0 49.5 -18.5t18.5 -49.5v-142h9q90 0 134 -1q30 0 48.5 -18t18.5 -49v-497q0 -31 -18.5 -49.5t-48.5 -18.5h-707q-31 0 -49.5 18.5t-18.5 48.5v499q0 30 18.5 48t49.5 18q89 0 134 1q1 -1 9 0v0zM723 551h-420v-546
h420v546zM766 552v-546l3 -1h103q9 0 14 7q6 9 6 20v492v9q-2 18 -20 19h-106v0zM259 552h-102q-23 0 -23 -24v-499q0 -24 24 -24h95h3h3v547zM681 595v4.5v3.5v134q0 26 -26 26h-285q-14 0 -20 -6t-6 -21v-132q0 -2 0.5 -5t0.5 -4h336z" />
    <glyph glyph-name="left" unicode="&#xe625;" 
d="M302 355l85 -84l94 -94l39 -39q8 -8 8 -18.5t-7.5 -18t-18.5 -7.5t-18 8l-39 38l-94 94l-133 133q-7 8 -7 18.5t7 17.5l266 266q7 7 18 7t18.5 -7.5t7.5 -18t-8 -17.5l-224 -225h486q11 0 19 -7.5t8 -18.5t-8 -19t-19 -8h-480zM256 402l-1 1v-2q0 1 1 1z" />
    <glyph glyph-name="mimakejian" unicode="&#xe62d;" 
d="M512 678q73 0 142 -24.5t116.5 -58t91 -78.5t65 -75t39.5 -59q-18 -29 -39.5 -59t-64.5 -75t-90.5 -78t-117 -57t-142.5 -24q-83 0 -156 24t-120.5 57t-87.5 77.5t-58.5 74.5t-32.5 58q17 29 39 59t65.5 75.5t91.5 79t117 58.5t142 25zM512 729q-69 0 -134.5 -19
t-115 -49t-93.5 -67.5t-74 -73.5t-52.5 -67.5t-32.5 -49t-10 -19.5q3 -7 8.5 -19.5t26.5 -48.5t46.5 -68.5t69 -72.5t93 -68.5t120 -48t148.5 -19.5q70 0 137 19.5t115.5 48t93.5 68t73 72t52 68.5t31 48.5t10 19.5v0q-4 7 -10.5 19.5t-31 48.5t-52 68.5t-72.5 72.5t-94 69
t-115.5 48.5t-136.5 19.5v0zM512 500q50 0 83 -33t33 -83t-33 -83t-83 -33t-83 33t-33 83t33 83t83 33zM512 551q-72 0 -119.5 -48t-47.5 -119t47.5 -119t119.5 -48t119.5 48t47.5 119t-47.5 119t-119.5 48v0z" />
    <glyph glyph-name="fangxiangshang" unicode="&#xe61c;" 
d="M512 617q17 0 29 -12l384 -384q12 -12 12 -29t-12 -29t-29 -12t-29 12l-355 355l-355 -355q-12 -12 -29 -12t-29 12t-12 29t12 29l384 384q12 12 29 12z" />
    <glyph glyph-name="top" unicode="&#xe61d;" 
d="M512 617q17 0 29 -12l384 -384q12 -12 12 -29t-12 -29t-29 -12t-29 12l-355 355l-355 -355q-12 -12 -29 -12t-29 12t-12 29t12 29l384 384q12 12 29 12z" />
    <glyph glyph-name="edaikuang" unicode="&#xe605;" 
d="M292 640h-72v73q0 15 -11 26t-26 11t-26 -11t-11 -26v-73h-72q-15 0 -26 -10.5t-11 -26t11 -26t26 -10.5h72v-73q0 -15 11 -26t26 -11t26 11t11 26v73h72q16 0 26.5 10.5t10.5 26t-10.5 26t-26.5 10.5v0v0zM292 640zM489 791h-45v45q0 10 -7 16.5t-16.5 6.5t-16 -6.5
t-6.5 -16.5v-45h-46q-9 0 -15.5 -7t-6.5 -16.5t6.5 -16t15.5 -6.5h46v-45q0 -10 6.5 -16.5t16 -6.5t16.5 6.5t7 16.5v45h45q9 0 16 6.5t7 16t-7 16.5t-16 7v0v0zM489 791zM315 855h-27v27q0 6 -4 10t-9.5 4t-9.5 -4t-4 -10v-27h-28q-5 0 -9 -4t-4 -9.5t4 -10t9 -4.5h28v-27
q0 -5 4 -9.5t9.5 -4.5t9.5 4.5t4 9.5v27h27q6 0 10 4.5t4 10t-4 9.5t-10 4v0v0zM315 855zM426 476q88 26 180 26t180 -26q11 17 18 36q3 7 6.5 20.5t3.5 15.5q12 43 -21 71q-43 36 -98 13q-5 -2 -7 1q-34 32 -81.5 32t-82.5 -31q-2 -3 -6 -2q-27 13 -58 7q-30 -7 -48.5 -30
t-14.5 -54q5 -44 29 -79v0v0zM426 476zM697 259q-33 31 -92 31q-56 0 -95.5 -32t-48.5 -84h269q0 54 -33 85zM974 175q-44 163 -186 246q-10 6 -26 14q-76 19 -156 19q-79 0 -156 -19q-110 -52 -162.5 -132.5t-61.5 -200.5q-4 -65 10 -121q12 -47 50 -78t87 -31h234h233
q74 1 117 64q18 27 25 69q14 88 -8 170zM811 120h-351q2 -67 45 -103t117 -36q84 0 155 44v-59q-65 -38 -173 -38q-106 0 -166 54t-60 152q0 93 65.5 151t163.5 58t151 -50t53 -140v-33z" />
    <glyph glyph-name="fangchan1" unicode="&#xe606;" horiz-adv-x="1557" 
d="M1126 189h17v19zM1080 -127q27 2 45 21.5t18 46.5v44h-63v-112zM1094 121l-14 -29v-40h63v69h-49zM1143 480v30v40l-351 247q-5 5 -12 5h-1q-1 1 -3.5 1t-3.5 -1h-1q-7 0 -13 -5l-350 -247v-40v-30q0 -1 -0.5 -2t0.5 -2v-535q0 -28 20 -48.5t49 -20.5h507v112h-150v68
h150v40l-14 29h-136v68h104l-141 162h108l127 -152l111 134v143q1 1 0.5 2t-0.5 2zM1080 -128v1v-1zM1143 189h88v-68h-88v68zM1143 52h88v-67h-88v67zM1158 351l-15 -18v-125l124 143h-109zM1366 476l-565 412q-8 6 -19 7q-1 0 -1 1h-6h-5t-2 -1q-11 -1 -19 -7l-564 -412
q-15 -11 -17.5 -28.5t7.5 -32.5l34 -46q11 -15 29 -17.5t32 7.5l505 369l506 -369q15 -10 32.5 -7.5t28.5 17.5l34 46q10 15 7 32.5t-17 28.5z" />
    <glyph glyph-name="quanzheng" unicode="&#xe607;" horiz-adv-x="1317" 
d="M1117 802l-83 71l-17 -9q-50 -24 -102 -34t-89 -8.5t-73.5 11t-53 16.5t-29.5 14l-15 9l-14 -9q-13 -7 -29.5 -14t-53 -16t-73.5 -11t-89 8t-102 34l-17 9l-83 -71l10 -21q54 -108 54 -180q0 -18 -12 -74q-25 -123 -25 -196q0 -205 165 -261q196 -67 245 -138l24 -35
l25 35q50 71 245 138q165 56 165 261q0 68 -25 196v1q-12 57 -12 73q0 74 55 180zM450 731q30 -58 48 -127h-74q-14 63 -46 127h72zM347 505v53h130v-277q28 10 67 36v-58q-49 -44 -143 -79v325h-54zM947 179h-436v49h64v333h74v-333h72v424h-180v54h395v-54h-133v-158h115
v-53h-115v-214h144v-48z" />
    <glyph glyph-name="zijijiankuang" unicode="&#xe608;" 
d="M446 785q-24 -20 -49 -48q-23 -26 -50 -63t-55 -91q-28 -53 -42 -102q-15 -49 -20 -88q-7 -44 -7 -84q-11 9 -23 15t-25 11q-14 5 -30 8q-31 4 -57 -2t-43 -16q-15 -11 -25 -12.5t-10 14.5q0 38 11 75.5t26.5 71t31.5 59.5q16 27 26 39q49 68 108 109q59 42 111 65
q60 27 122 39v0v0zM577 785q61 -11 122 -38q51 -23 111 -65t109 -109q10 -13 25 -39q15 -25 31 -59q15 -33 27 -71t12 -76q0 -20 -11 -18q-10 2 -24 15q-13 10 -36 17q-24 6 -59 3q-16 -2 -31 -8.5t-27 -11.5q-12 -7 -25 -15q-1 40 -8 84q-7 40 -20 88q-14 49 -43 102
t-55 90q-27 38 -49 63q-25 28 -49 48v0v0zM511 896q21 0 33 -29q6 -17 9 -23q3 -8 11 -27q5 -15 13 -32q-10 6 -26 14q-13 7 -22 11q-11 5 -18.5 5t-18.5 -4.5t-21 -10.5q-11 -6 -25 -15q6 16 12 33q6 14 10 28q3 7 9 23q6 15 16 21q9 6 18 6v0v0zM486 306q8 12 19 13
q10 2 19 0q10 -4 20 -10v-326q0 -49 -20.5 -80t-78.5 -31q-30 0 -49 9q-19 10 -31 23q-11 14 -15.5 30t-4.5 29q0 19 11 27t17 9q9 0 20 -7.5t12 -21.5q1 -19 9.5 -32.5t30.5 -13.5q27 0 33.5 18.5t6.5 50.5v313h1v0zM511 785h6q4 -1 14 -9q9 -8 26 -27q15 -17 45 -55
q28 -36 49 -72q20 -35 34 -68q15 -33 23 -59q9 -27 14 -44q0 -1 3 -12.5t5 -18.5q6 -21 10 -41q5 -22 7 -38q2 -17 -2 -22q-12 -16 -25 -8.5t-38 22.5q-13 7 -34 14q-19 6 -44 12q-23 5 -47 7q-23 3 -44 3q-41 1 -85 -9q-44 -9 -73 -22q-28 -12 -37 -22q-10 -9 -22 -6
q-14 4 -13.5 34.5t20.5 104.5q14 49 28 86q15 36 31 64q15 28 30 50q14 22 28 41q13 19 27.5 36t28.5 31q12 12 22 21q10 7 13 7v0v0zM511 785zM869 56h47v-37h-68l-13 -29h81v-38h-81v-80h-56v80h-82v38h82l-14 29h-68v37h48l-57 104h73l55 -110l54 110h55z" />
    <glyph glyph-name="buy1" unicode="&#xe62b;" horiz-adv-x="1028" 
d="M512 -128q-137 0 -255 68.5t-187.5 186.5t-69.5 257t69.5 257t187.5 186.5t255 68.5q83 0 173 -28q8 -3 10.5 -9.5t0.5 -11.5q-9 -19 -22 -15q-84 29 -162 29q-96 0 -184.5 -38t-152.5 -102t-102 -152.5t-38 -184.5t38 -184.5t102 -152.5t152.5 -102t184.5 -38t184.5 38
t152.5 102t102 152.5t38 184.5q0 135 -71 254q-7 15 7 25q15 7 25 -7q78 -128 78 -272q-2 -104 -43 -199t-110 -163.5t-164 -109t-199 -40.5zM872 705q-7 0 -14 7q-48 48 -106 85q-13 7 -7 25q7 13 25 7q74 -50 116 -92q13 -12 0 -25q-7 -7 -14 -7zM749 232h-382l-102 314
h-50q-15 0 -25 10t-10 26t10 25.5t25 9.5h103l102 -311h279l43 152h-265q-16 0 -26 10t-10 25.5t10 25.5t26 10h356zM431 112zM378 112q0 22 15.5 37.5t37.5 15.5t37.5 -15.5t15.5 -37.5t-15.5 -37.5t-37.5 -15.5t-37.5 15.5t-15.5 37.5zM699 112zM646 112q0 22 15.5 37.5
t37.5 15.5t37.5 -15.5t15.5 -37.5t-15.5 -37.5t-37.5 -15.5t-37.5 15.5t-15.5 37.5z" />
    <glyph glyph-name="sale1" unicode="&#xe62f;" 
d="M512 -128q-139 0 -257 68.5t-186.5 186.5t-68.5 257t68.5 257t186.5 186.5t257 68.5q83 0 173 -28q8 -3 10.5 -9.5t0.5 -11.5q-4 -7 -11 -12t-14 -3q-85 29 -163 29q-96 0 -183.5 -38t-151 -102t-101 -152.5t-37.5 -184.5t38 -184.5t102 -152.5t152.5 -102t184.5 -38
t184.5 38t152.5 102t102 152.5t38 184.5q0 135 -71 254q-7 15 7 25q3 3 9.5 0.5t11.5 -7.5q78 -128 78 -272q0 -139 -68.5 -257t-186.5 -186.5t-257 -68.5zM872 705q-7 0 -14 7q-48 48 -106 85q-13 7 -7 25q7 13 25 7q76 -51 113 -92q12 -12 0 -25q-7 -7 -11 -7zM773 412
h-505q-16 0 -25.5 10t-9.5 25.5t9.5 25.5t25.5 10h509q16 0 25.5 -10t9.5 -25q0 -16 -11 -26t-28 -10zM766 229h-508q-16 0 -26 9.5t-10 25.5t10 25.5t26 9.5h508q16 0 26 -9.5t10 -25.5q0 -15 -11 -25t-25 -10zM519 412q-14 0 -25 11l-187 187q-10 11 -10 26.5t10.5 26.5
t24.5 11t25 -11l187 -187q10 -11 10 -25t-10 -25q-5 -14 -25 -14zM519 412q-14 0 -24.5 10.5t-10.5 25t10 24.5l180 180q11 11 25 11t24.5 -10.5t10.5 -24.5t-10 -25l-180 -180q-6 -11 -25 -11zM519 59q-16 0 -25.5 10t-9.5 25v354q0 15 9.5 25t25.5 10t25.5 -10t9.5 -25
v-354q0 -13 -10 -24t-25 -11z" />
    <glyph glyph-name="daikuanliushi" unicode="&#xe630;" 
d="M498 132q19 0 32.5 14t13.5 32h-97q3 -19 17.5 -32.5t33.5 -13.5zM656 409q0 56 -33 97t-86 55v18q0 13 -11 24.5t-24.5 11.5t-25 -11.5t-11.5 -24.5v-18q-3 -2 -10.5 -4t-13 -4t-8.5 -3l227 -227v86h-4zM649 204l47 -47l32 32l-403 401l-29 -33l68 -68q-21 -38 -21 -80
v-133l-47 -47v-25h353z" />
    <glyph glyph-name="hongdengrenwu" unicode="&#xe631;" 
d="M393 568l-32 32q-45 -33 -72 -82t-29 -105h46q6 97 87 155zM714 413h47q-3 56 -28.5 105.5t-69.5 81.5l-32 -32q78 -60 83 -155zM667 402q0 56 -33 97t-86 54v15q0 13 -11 24.5t-25 11.5t-25 -11.5t-11 -24.5v-18q-53 -14 -86 -55t-33 -97v-133l-47 -47v-25h408v25
l-47 47v137h-4zM512 124h11q26 6 32 29q4 4 4 18h-97q0 -19 14.5 -33t35.5 -14z" />
    <glyph glyph-name="huangdengrenwu" unicode="&#xe632;" 
d="M505 150q19 0 33 14t14 33h-98q3 -20 17.5 -33.5t33.5 -13.5zM660 294v133q0 56 -33.5 97t-85.5 55v18q0 13 -11.5 24.5t-25 11.5t-24.5 -11.5t-11 -24.5v-18q-53 -14 -86 -55t-33 -97v-133l-51 -47v-25h408v25z" />
    <glyph glyph-name="jihuabiangeng" unicode="&#xe633;" 
d="M472 431l-137 137l-36 -36l137 -137zM577 568l54 -54l-332 -336l36 -36l336 332l54 -54v148h-148zM584 319l-36 -36l83 -83l-54 -54h148v148l-54 -54z" />
    <glyph glyph-name="jianguanshentou" unicode="&#xe634;" 
d="M703 463v116h-112l-79 79l-79 -79h-116v-116l-79 -79l79 -79v-112h116l79 -79l79 79h112v112l79 79zM512 240q-59 0 -101.5 42.5t-42.5 101.5t42.5 101.5t101.5 42.5t101.5 -42.5t42.5 -101.5t-42.5 -101.5t-101.5 -42.5zM512 481q-41 0 -69 -28t-28 -69t28 -69t69 -28
t69 28t28 69q0 40 -29.5 68.5t-67.5 28.5z" />
    <glyph glyph-name="wuzhuanjian" unicode="&#xe636;" 
d="M671 626h-145v-170l-61 36l-61 -36v170h-25q-19 0 -33 -14t-14 -33v-386q0 -19 14 -33t33 -14h288q19 0 33 14t14 33v386q3 18 -10.5 32.5t-32.5 14.5zM584 366q16 0 28 -11.5t12 -28t-12 -28t-28 -11.5t-28 11.5t-12 27.5q-2 16 10.5 28t29.5 12zM663 204h-162v21
q0 20 27 30t53 10q25 0 52 -11t27 -29v-21h3z" />
    <glyph glyph-name="wuzhurenwu" unicode="&#xe637;" 
d="M245 157h530l-263 458zM534 229h-47v47h47v-47zM534 326h-47v98h47v-98z" />
    <glyph glyph-name="wuzhuziyuan" unicode="&#xe638;" 
d="M703 492h-191l-47 47h-144q-19 0 -33 -14t-14 -33v-288q0 -19 14 -33t33 -14h386q19 0 33 14t14 33v241q-3 20 -17.5 33.5t-33.5 13.5zM584 420q19 0 33 -14t14 -33t-14 -33t-33 -14t-33 14t-14 33q-2 19 11.5 33t35.5 14zM678 225h-191v26q0 21 33 33.5t64 12.5
q29 0 63 -13.5t34 -32.5v-26h-3z" />
    <glyph glyph-name="ezhuanhua" unicode="&#xe639;" 
d="M512 579v79l-105 -108l105 -105v80q65 0 112 -47t47 -112q0 -40 -18 -76l39 -39q33 64 33 115q0 87 -63 150t-150 63zM512 204q-65 0 -112 46.5t-47 111.5q0 40 18 76l-39 40q-33 -65 -33 -116q0 -86 63 -149t150 -63v-80l108 108l-108 109v-83z" />
    <glyph glyph-name="yeji01" unicode="&#xe643;" 
d="M512 853q-96 0 -182.5 -37t-149.5 -100t-100 -149.5t-37 -182.5t37 -182.5t100 -149.5t149.5 -100t182.5 -37t182.5 37t149.5 100t100 149.5t37 182.5t-37 182.5t-100 149.5t-149.5 100t-182.5 37zM410 207q0 -12 -7.5 -20t-18.5 -8h-51q-11 0 -18.5 8t-7.5 20v81
q0 12 7.5 20t18.5 8h51q11 0 18.5 -8t7.5 -20v-81zM563 206q0 -11 -7.5 -19t-17.5 -8h-52q-10 0 -17.5 8t-7.5 19v134q0 11 7.5 19t17.5 8h52q10 0 17.5 -8t7.5 -19v-134zM717 206q0 -11 -7.5 -19t-18.5 -8h-51q-11 0 -18.5 8t-7.5 19v186q0 11 7.5 18.5t18.5 7.5h51
q11 0 18.5 -7.5t7.5 -18.5v-186zM680 490l-32 33l-81 -81v0l-36 -38l-37 38l-37 38l-113 -113l-37 37l149 151l74 -75l80 81l-41 41l148 38z" />
    <glyph glyph-name="bianji" unicode="&#xe63c;" 
d="M938 -128h-895q-18 0 -30.5 12.5t-12.5 30.5v895q0 18 12.5 30.5t30.5 12.5h447q18 0 31 -12.5t13 -30.5t-13 -31t-31 -13h-404v-808h808v404q0 18 13 31t31 13t30.5 -13t12.5 -31v-447q0 -18 -13 -30.5t-30 -12.5zM316 146q-18 0 -31 13q-21 20 -9 48l101 223q3 8 9 13
l440 440q13 13 31 13v0q17 0 30 -13l124 -124q13 -13 13 -31t-13 -30l-443 -443q-6 -7 -13 -10l-222 -96q-8 -3 -17 -3zM453 387l-52 -114l112 48l406 407l-62 63zM931 797z" />
    <glyph glyph-name="chaxunxiangqing" unicode="&#xe63b;" 
d="M863 77l-53 53q30 43 30 95q0 69 -48.5 117.5t-117.5 48.5t-117.5 -48.5t-48.5 -117.5t48.5 -117.5t117.5 -48.5q52 0 95 30l53 -53q9 -9 21 -9t20 9q9 9 9 20.5t-9 20.5zM566 225q0 45 31.5 77t76.5 32t77 -32t32 -77t-32 -76.5t-77 -31.5t-76.5 31.5t-31.5 76.5z
M716 583l-152 152q-8 9 -20 9h-361q-12 0 -20.5 -8.5t-8.5 -19.5v-666q0 -12 8.5 -20t20.5 -8h332v0q11 0 19.5 8t8.5 20t-8.5 20t-19.5 8h-304v609h265v-166q0 -12 8.5 -20.5t20.5 -8.5h163v-33v0q0 -12 8 -20t20 -8t20 8t8 20v104q0 12 -8 20zM533 549v137l135 -135v-2
h-135z" />
    <glyph glyph-name="hongdengjilu" unicode="&#xe653;" horiz-adv-x="1026" 
d="M987 -65h-949q-21 0 -32 18q-12 18 0 38l473 823q12 18 33 18t33 -18l475 -823q11 -18 0 -38q-10 -18 -33 -18zM104 11h818l-410 709zM512 218q-17 0 -29 11t-12 26v270q0 15 12 26t29 11t29 -11t12 -26v-270q-1 -16 -13 -26.5t-28 -10.5zM512 118zM468 118q0 18 13 31
t31 13t31 -13t13 -31t-13 -31t-31 -13t-31 13t-13 31z" />
    <glyph glyph-name="shixinxing" unicode="&#xe63e;" horiz-adv-x="1025" 
d="M801 -102q-10 0 -19 4l-273 144l-273 -144q-20 -11 -41 3q-20 15 -16 38l53 304l-220 215q-17 17 -10 40q6 22 31 27l306 44l136 276q12 21 34 21q25 0 35 -21l136 -276l306 -44q10 -1 19 -8.5t12 -18.5q8 -25 -10 -40l-220 -216l52 -303q5 -25 -15 -38q-12 -7 -23 -7z
" />
    <glyph glyph-name="xing" unicode="&#xe644;" 
d="M802 -97q-10 0 -18 5l-273 143l-273 -143q-21 -12 -42 2q-20 15 -15 39l52 304l-220 215q-17 17 -10 40q6 22 31 27l306 44l136 277q12 22 35 22q24 0 34 -22l136 -277l306 -44q11 -1 19.5 -9t11.5 -18q8 -25 -10 -40l-220 -215l51 -304q5 -25 -16 -39q-9 -7 -21 -7z
M511 134q10 0 18 -5l222 -116l-43 247q-4 21 12 34l179 175l-248 36q-21 2 -28 21l-111 225l-112 -225q-10 -19 -29 -21l-249 -36l180 -175q13 -13 11 -34l-43 -247l222 116q9 5 19 5z" />
    <glyph glyph-name="xuanzeriqi" unicode="&#xe661;" 
d="M321 613q-16 0 -27 11t-11 27v207q0 16 11 27t27 11t27.5 -11t11.5 -27v-207q0 -16 -11.5 -27t-27.5 -11zM622 720v69h-222v-69h222zM705 613q-16 0 -27 11t-11 27v207q0 16 11 27t27 11t27.5 -11t11.5 -27v-207q0 -16 -11.5 -27t-27.5 -11zM987 701q0 41 -24 64.5
t-64 23.5h-120v-71h120q12 0 14.5 -2.5t2.5 -14.5v-456q0 -7 -4.5 -12t-11.5 -5h-1h-777h-1q-7 1 -11.5 5.5t-4.5 11.5v456q0 7 5.5 12t11.5 5h120v71h-120q-36 0 -62 -26t-26 -62v-456q0 -29 17 -53q-17 -21 -17 -53v-173q0 -36 26 -62t62 -26h777q36 0 62 26t26 62v173
q0 29 -17 53q17 21 17 53v456zM917 -33q0 -7 -5 -12t-12 -5h-778q-7 0 -12 5.5t-5 11.5v172q0 7 5 12t11 5h1h353h71h353h1q7 -1 11.5 -5.5t4.5 -11.5v-172h1z" />
    <glyph glyph-name="shangchuan" unicode="&#xe641;" horiz-adv-x="1025" 
d="M842 540l-296 296v0l-3 3l-1 2l-2 1l-1 1q-1 0 -1 2q-2 0 -2 1q-1 0 -1 2q-2 0 -2 1q-1 0 -1 1h-2h-2h-3h-2h-4v0v0h-4h-2h-2h-3h-2q-1 0 -3 -1h-1q-1 0 -1 -1q-2 0 -2 -2l-1 -1q-2 0 -2 -2l-1 -1q-1 0 -1 -1l-2 -2q-1 0 -1 -1l-302 -298q-13 -12 -13 -30.5t13 -31.5
t31.5 -13t31.5 13l219 219v-549q0 -18 13 -31t31 -13t31 13t13 31v549l220 -221q13 -12 31.5 -12t31.5 12q13 14 13 33t-13 31zM981 320q-18 0 -31 -13t-13 -31v-246h-845v246q0 18 -13 31t-31 13t-31 -13t-13 -31v-290q0 -18 13 -31t31 -13h2h1h926h1h2q18 0 31 13t13 31
v290q2 18 -10.5 31t-32.5 13z" />
    <glyph glyph-name="icon2" unicode="&#xe66d;" horiz-adv-x="1026" 
d="M1026 791v4v2q-1 20 -15 33q-12 13 -31 15h-5q-3 0 -4 -1q-2 0 -4.5 0.5t-3.5 0.5h-130q-27 0 -45 -14.5t-18 -36t18 -36t45 -14.5h23l-219 -218l-220 220l-3 4h-1q0 1 -1.5 1.5t-1.5 1.5q-14 8 -28 8q-16 0 -31 -11h-1q-2 -2 -3 -4l-332 -332q-15 -15 -15 -35
q0 -21 14 -35q15 -15 36 -15t35 15l296 296l221 -220q14 -15 35 -15h5q2 0 6 1q7 2 12 5q7 3 12 8l254 254v-23q0 -27 14.5 -45.5t35.5 -18.5t35.5 18.5t14.5 45.5v130v7v4zM125 247q-20 0 -35 -14.5t-15 -35.5v-243q0 -20 15 -35t35.5 -15t35.5 15t15 35v243q0 21 -15 35.5
t-36 14.5zM638 292q-21 0 -35.5 -14.5t-14.5 -35.5v-288q0 -21 14.5 -36t35.5 -15t36 15t15 36v288q0 21 -15 35.5t-36 14.5zM377.5 490q-20.5 0 -35.5 -14.5t-15 -35.5v-486q0 -21 15 -36t35.5 -15t35.5 15t15 36v486q0 20 -15 35t-35.5 15zM899 490q-21 0 -36 -14.5
t-15 -35.5v-486q0 -21 15 -36t35.5 -15t35.5 15t15 36v486q0 21 -14.5 35.5t-35.5 14.5z" />
    <glyph glyph-name="zaitu" unicode="&#xe686;" 
d="M936 254l-120 120q43 58 43 140q0 107 -76 183t-183 76t-183 -76t-76 -183.5t76 -183.5t183 -76q94 0 166 66l118 -118q10 -10 20 0l32 32q4 4 4 10t-4 10zM600 333q-75 0 -128 53t-53 127.5t53 127.5t128 53t128 -53t53 -127.5t-53 -127.5t-128 -53zM239 559h-121
q-13 0 -22 9t-9 21v2q0 13 9 22t22 9h121q12 0 21 -9t9 -22v-2q0 -12 -9 -21t-21 -9zM239 556h-121q-14 0 -24 9.5t-10 23.5v2q0 14 10 24t24 10h121q13 0 23 -10t10 -24v-2q0 -13 -10 -23t-23 -10zM118 620q-12 0 -20 -8.5t-8 -19.5v-2q0 -12 8 -20t20 -8h121q11 0 19.5 8
t8.5 20v2q0 11 -8.5 19.5t-19.5 8.5h-121zM280 283h-162q-13 0 -22 9t-9 21v2q0 13 9 22t22 9h162q12 0 21 -9t9 -22v-2q0 -12 -9 -21t-21 -9zM280 280h-162q-14 0 -24 10t-10 23v2q0 14 10 24t24 10h162q13 0 23 -10t10 -24v-2q0 -13 -10 -23t-23 -10zM118 344
q-12 0 -20 -8.5t-8 -20.5v-2q0 -11 8 -19.5t20 -8.5h162q11 0 19.5 8.5t8.5 19.5v2q0 12 -8.5 20.5t-19.5 8.5h-162zM885 7h-767q-13 0 -22 9t-9 21v2q0 13 9 22t22 9h767q13 0 22 -9t9 -22v-2q0 -12 -9 -21t-22 -9zM885 4h-767q-14 0 -24 10t-10 23v2q0 14 10 24t24 10h767
q14 0 24 -10t10 -24v-2q0 -13 -10 -23t-24 -10zM118 68q-12 0 -20 -8.5t-8 -20.5v-2q0 -11 8 -19.5t20 -8.5h767q12 0 20 8.5t8 19.5v2q0 12 -8 20.5t-20 8.5h-767z" />
    <glyph glyph-name="tushitubiao" unicode="&#xe687;" 
d="M1005 408h-129h-129h-4q-3 0 -3 3.5t-1 10.5q-11 90 -83 148.5t-162 51.5q-82 -6 -143 -65.5t-68 -141.5q0 -5 -1 -6t-6 -1h-257q-13 0 -19 -10v-8q5 -10 19 -10h129h129q6 0 6 -4q0 -9 3 -25q9 -48 38.5 -88.5t70.5 -64t89.5 -31.5t96.5 9q57 19 99.5 65t55.5 104
q2 12 4 28q0 5 0.5 6t6.5 1h258q13 0 19 10v8q-5 10 -19 10zM658 258q-59 -63 -148 -64q-82 1 -140 58q-59 59 -59 142q0 78 53 135q65 69 159 65q78 -5 134 -63q55 -58 55 -137t-54 -136z" />
  </font>
</defs>
</svg>
